<svg width="17" height="16" viewBox="0 0 17 16" fill="none" xmlns="http://www.w3.org/2000/svg">
<path fill-rule="evenodd" clip-rule="evenodd" d="M6.5 10C4.291 10 2.5 8.209 2.5 6C2.5 3.791 4.291 2 6.5 2C8.709 2 10.5 3.791 10.5 6C10.5 8.209 8.709 10 6.5 10ZM16.207 14.293L11.387 9.473C12.085 8.492 12.5 7.296 12.5 6C12.5 2.687 9.813 0 6.5 0C3.187 0 0.5 2.687 0.5 6C0.5 9.313 3.187 12 6.5 12C7.796 12 8.992 11.585 9.973 10.887L14.793 15.707C14.988 15.902 15.244 16 15.5 16C15.756 16 16.012 15.902 16.207 15.707C16.598 15.316 16.598 14.684 16.207 14.293Z" fill="#1D2327"/>
</svg>
