<svg width="16" height="16" viewBox="0 0 16 16" fill="none" xmlns="http://www.w3.org/2000/svg">
<path fill-rule="evenodd" clip-rule="evenodd" d="M8 16C12.4112 16 16 12.4112 16 8C16 3.5888 12.4112 -3.85639e-07 8 0C3.5888 3.85639e-07 -3.85639e-07 3.5888 0 8C3.85639e-07 12.4112 3.5888 16 8 16ZM8.8 11.2C8.8 11.6418 8.44183 12 8 12C7.55817 12 7.2 11.6418 7.2 11.2V8C7.2 7.55817 7.55817 7.2 8 7.2C8.44183 7.2 8.8 7.55817 8.8 8V11.2ZM8 4C7.55817 4 7.2 4.35817 7.2 4.8C7.2 5.24183 7.55817 5.6 8 5.6C8.44183 5.6 8.8 5.24183 8.8 4.8C8.8 4.35817 8.44183 4 8 4Z" fill="#424242"/>
</svg>
