<svg width="24" height="24" viewBox="0 0 24 24" fill="none" xmlns="http://www.w3.org/2000/svg">
<path fill-rule="evenodd" clip-rule="evenodd" d="M24 12C24 18.6274 18.6274 24 12 24C5.37258 24 0 18.6274 0 12C0 5.37258 5.37258 0 12 0C18.6274 0 24 5.37258 24 12ZM6.35147 9.95147L11.1515 5.15147C11.6201 4.68284 12.3799 4.68284 12.8485 5.15147L17.6485 9.95147C18.1172 10.4201 18.1172 11.1799 17.6485 11.6485C17.1799 12.1172 16.4201 12.1172 15.9515 11.6485L13.2 8.89706V18C13.2 18.6628 12.6627 19.2 12 19.2C11.3373 19.2 10.8 18.6628 10.8 18V8.89706L8.04853 11.6485C7.5799 12.1172 6.8201 12.1172 6.35147 11.6485C5.88284 11.1799 5.88284 10.4201 6.35147 9.95147Z" fill="#41278D"/>
</svg>
