<svg width="11" height="10" viewBox="0 0 11 10" fill="none" xmlns="http://www.w3.org/2000/svg">
<path fill-rule="evenodd" clip-rule="evenodd" d="M9.5 8V9C9.5 9.553 9.053 10 8.5 10H1.5C0.925 10 0.5 9.516 0.5 9V2C0.5 1.448 0.948 1 1.5 1H2.5C3.53693 1 3.54053 2.5 2.5 2.5C2.32217 2.50502 2.14704 2.5 2 2.5V8.5H8C8 8.5 8 8.17779 8 8C8 7 9.5 7 9.5 8ZM5.75 0.75C5.75 0.335786 6.08579 0 6.5 0H10.5V4C10.5 4.41421 10.1642 4.75 9.75 4.75C9.33579 4.75 9 4.41421 9 4V2.56066L5.78033 5.78033C5.48744 6.07322 5.01256 6.07322 4.71967 5.78033C4.42678 5.48744 4.42678 5.01256 4.71967 4.71967L7.93934 1.5H6.5C6.08579 1.5 5.75 1.16421 5.75 0.75Z" fill="#41278D"/>
</svg>
