<svg width="20" height="21" viewBox="0 0 20 21" fill="none" xmlns="http://www.w3.org/2000/svg">
<path fill-rule="evenodd" clip-rule="evenodd" d="M10 20.5C15.514 20.5 20 16.014 20 10.5C20 4.986 15.514 0.5 10 0.5C4.486 0.5 -4.82049e-07 4.986 0 10.5C4.82049e-07 16.014 4.486 20.5 10 20.5ZM11 14.5C11 15.0523 10.5523 15.5 10 15.5C9.44771 15.5 9 15.0523 9 14.5V10.5C9 9.94772 9.44771 9.5 10 9.5C10.5523 9.5 11 9.94772 11 10.5V14.5ZM10 5.5C9.44771 5.5 9 5.94771 9 6.5C9 7.05229 9.44771 7.5 10 7.5C10.5523 7.5 11 7.05229 11 6.5C11 5.94771 10.5523 5.5 10 5.5Z" fill="#FFBA00"/>
</svg>
