<svg width="77" height="45" viewBox="0 0 77 45" fill="none" xmlns="http://www.w3.org/2000/svg">
<path d="M10.5556 5.27786C10.5556 8.19273 8.19267 10.5557 5.2778 10.5557C2.36294 10.5557 0 8.19273 0 5.27786C0 2.363 2.36294 6.10352e-05 5.2778 6.10352e-05C8.19267 6.10352e-05 10.5556 2.363 10.5556 5.27786Z" fill="#00A0FF"/>
<path d="M23.6865 5.27786C23.6865 8.19273 21.3235 10.5557 18.4087 10.5557C15.4938 10.5557 13.1309 8.19273 13.1309 5.27786C13.1309 2.363 15.4938 6.10352e-05 18.4087 6.10352e-05C21.3235 6.10352e-05 23.6865 2.363 23.6865 5.27786Z" fill="#00B4FF"/>
<path d="M36.8134 5.27786C36.8134 8.19273 34.4505 10.5557 31.5356 10.5557C28.6207 10.5557 26.2578 8.19273 26.2578 5.27786C26.2578 2.363 28.6207 6.10352e-05 31.5356 6.10352e-05C34.4505 6.10352e-05 36.8134 2.363 36.8134 5.27786Z" fill="#00C8FF"/>
<path d="M23.6865 18.6031C23.6865 21.5179 21.3235 23.8809 18.4087 23.8809C15.4938 23.8809 13.1309 21.5179 13.1309 18.6031C13.1309 15.6882 15.4938 13.3252 18.4087 13.3252C21.3235 13.3252 23.6865 15.6882 23.6865 18.6031Z" fill="#00B4FF"/>
<path d="M63.2724 5.27786C63.2724 8.19273 60.9095 10.5557 57.9946 10.5557C55.0797 10.5557 52.7168 8.19273 52.7168 5.27786C52.7168 2.363 55.0797 6.10352e-05 57.9946 6.10352e-05C60.9095 6.10352e-05 63.2724 2.363 63.2724 5.27786Z" fill="#00F0FF"/>
<path d="M76.4033 5.27786C76.4033 8.19273 74.0403 10.5557 71.1255 10.5557C68.2106 10.5557 65.8477 8.19273 65.8477 5.27786C65.8477 2.363 68.2106 6.10352e-05 71.1255 6.10352e-05C74.0403 6.10352e-05 76.4033 2.363 76.4033 5.27786Z" fill="#00FFFF"/>
<path d="M50.1454 18.6031C50.1454 21.5179 47.7825 23.8809 44.8676 23.8809C41.9528 23.8809 39.5898 21.5179 39.5898 18.6031C39.5898 15.6882 41.9528 13.3252 44.8676 13.3252C47.7825 13.3252 50.1454 15.6882 50.1454 18.6031Z" fill="#00DCFF"/>
<path d="M63.2724 18.6031C63.2724 21.5179 60.9095 23.8809 57.9946 23.8809C55.0797 23.8809 52.7168 21.5179 52.7168 18.6031C52.7168 15.6882 55.0797 13.3252 57.9946 13.3252C60.9095 13.3252 63.2724 15.6882 63.2724 18.6031Z" fill="#00F0FF"/>
<path d="M4.09668 31.2298V38.1782H2.70931V31.2298H0.216797V29.9599H6.5892V31.2298H4.09668Z" fill="#1D2327"/>
<path d="M20.7333 38.1782H19.3225V34.9332L16.2656 29.9599H17.7822L20.0279 33.6987L22.2735 29.9599H23.7901L20.7333 34.9332V38.1782Z" fill="#1D2327"/>
<path d="M37.9906 36.9199C38.4685 36.9199 38.8801 36.8396 39.2251 36.6789C39.5699 36.5183 39.9305 36.2615 40.3067 35.9087L41.2003 36.8258C40.3302 37.7899 39.274 38.272 38.0317 38.272C36.7893 38.272 35.7585 37.8722 34.9395 37.0728C34.1205 36.2732 33.7109 35.2621 33.7109 34.0394C33.7109 32.8167 34.1283 31.7978 34.9631 30.9825C35.7979 30.1675 36.8519 29.7597 38.1258 29.7597C39.3995 29.7597 40.4635 30.2301 41.3179 31.1707L40.4361 32.1347C40.044 31.7585 39.6736 31.4961 39.3251 31.347C38.9762 31.1982 38.5667 31.1236 38.0963 31.1236C37.2655 31.1236 36.568 31.3922 36.0037 31.929C35.4392 32.4659 35.1571 33.1518 35.1571 33.9865C35.1571 34.8213 35.4372 35.5189 35.9977 36.0792C36.5581 36.6397 37.2223 36.9199 37.9906 36.9199Z" fill="#1D2327"/>
<path d="M52.3008 38.1782V29.9599H53.6881V33.5224H57.7678V29.9599H59.1552V38.1782H57.7678V34.8157H53.6881V38.1782H52.3008Z" fill="#1D2327"/>
<path d="M76.6165 29.9599V31.265H72.2311V33.4402H76.1698V34.6746H72.2311V36.8732H76.7576V38.1782H70.8438V29.9599H76.6165Z" fill="#1D2327"/>
<path d="M1.49737 42.0535C1.33279 42.0535 1.19793 42.0871 1.09247 42.1541C0.987129 42.2212 0.934349 42.3225 0.934349 42.4584C0.934349 42.5942 0.987129 42.6978 1.09247 42.7697C1.19793 42.8416 1.4223 42.9191 1.76569 43.0021C2.10898 43.0852 2.36771 43.2018 2.54188 43.3519C2.71595 43.502 2.80298 43.7233 2.80298 44.0155C2.80298 44.3078 2.69279 44.5449 2.47241 44.7269C2.25202 44.9091 1.96292 45 1.6052 45C1.08127 45 0.616483 44.8197 0.210938 44.4586L0.565426 44.0322C0.903973 44.3262 1.25534 44.4731 1.61952 44.4731C1.80167 44.4731 1.94611 44.434 2.05318 44.3557C2.16014 44.2773 2.21368 44.1736 2.21368 44.0441C2.21368 43.9149 2.16337 43.8143 2.06277 43.7424C1.96205 43.6706 1.78885 43.605 1.54283 43.5459C1.29692 43.4869 1.11003 43.4326 0.982282 43.3831C0.854532 43.3335 0.741109 43.2688 0.642119 43.189C0.444032 43.0388 0.345042 42.8089 0.345042 42.4991C0.345042 42.1893 0.457604 41.9504 0.682835 41.7827C0.908067 41.6151 1.18672 41.5312 1.51892 41.5312C1.73295 41.5312 1.94536 41.5664 2.15616 41.6366C2.36695 41.7068 2.5491 41.8059 2.70238 41.9337L2.40056 42.3601C2.30146 42.2707 2.16736 42.1972 1.99803 42.1397C1.8287 42.0822 1.66185 42.0535 1.49737 42.0535Z" fill="#1D2327"/>
<path d="M11.6432 42.4026C11.4147 42.1663 11.1344 42.048 10.8022 42.048C10.4701 42.048 10.1898 42.1663 9.96142 42.4026C9.73307 42.6389 9.61889 42.9255 9.61889 43.2626C9.61889 43.5996 9.73307 43.8862 9.96142 44.1227C10.1898 44.359 10.4701 44.4773 10.8022 44.4773C11.1344 44.4773 11.4147 44.359 11.6432 44.1227C11.8715 43.8862 11.9858 43.5996 11.9858 43.2626C11.9858 42.9255 11.8715 42.6389 11.6432 42.4026ZM12.0577 44.4988C11.719 44.8293 11.3005 44.9946 10.8022 44.9946C10.304 44.9946 9.88548 44.8293 9.54705 44.4988C9.20839 44.1682 9.03906 43.756 9.03906 43.2626C9.03906 42.769 9.20839 42.357 9.54705 42.0265C9.88548 41.6958 10.304 41.5305 10.8022 41.5305C11.3005 41.5305 11.719 41.6958 12.0577 42.0265C12.3962 42.357 12.5655 42.769 12.5655 43.2626C12.5655 43.756 12.3962 44.1682 12.0577 44.4988Z" fill="#1D2327"/>
<path d="M19.5927 42.1394V43.0593H21.0781V43.5816H19.5927V44.9614H19.0273V41.6122H21.26L21.2553 42.1394H19.5927Z" fill="#1D2327"/>
<path d="M28.9366 42.1297V44.9614H28.3712V42.1297H27.3555V41.6122H29.9524V42.1297H28.9366Z" fill="#1D2327"/>
<path d="M37.36 44.0223L38.1074 41.6122H38.6153L39.3627 44.0223L40.206 41.6122H40.8145L39.6454 44.9614H39.0848L38.3806 42.6663H38.3422L37.6379 44.9614H37.0772L35.9082 41.6122H36.5167L37.36 44.0223Z" fill="#1D2327"/>
<path d="M48.8489 43.6774L48.2405 42.2974L47.6319 43.6774H48.8489ZM47.4019 44.1997L47.0665 44.9614H46.4629L47.9386 41.6122H48.5422L50.018 44.9614H49.4143L49.0789 44.1997H47.4019Z" fill="#1D2327"/>
<path d="M58.1537 43.1742C58.2688 43.0752 58.3263 42.9162 58.3263 42.6975C58.3263 42.4787 58.2671 42.3286 58.149 42.2471C58.0307 42.1657 57.8199 42.125 57.5165 42.125H56.7978V43.3228H57.5022C57.8215 43.3228 58.0388 43.2733 58.1537 43.1742ZM58.906 42.7C58.906 43.2526 58.6648 43.6007 58.1826 43.7445L59.0593 44.9614H58.3406L57.5405 43.8355H56.7978V44.9614H56.2324V41.6122H57.4782C57.9892 41.6122 58.355 41.6985 58.5754 41.871C58.7958 42.0435 58.906 42.3197 58.906 42.7Z" fill="#1D2327"/>
<path d="M67.8214 41.6122V42.144H66.0341V43.0305H67.6393V43.5336H66.0341V44.4295H67.8788V44.9614H65.4688V41.6122H67.8214Z" fill="#1D2327"/>
<path d="M75.3665 42.0535C75.202 42.0535 75.0671 42.0871 74.9616 42.1541C74.8563 42.2212 74.8035 42.3225 74.8035 42.4584C74.8035 42.5942 74.8563 42.6978 74.9616 42.7697C75.0671 42.8416 75.2914 42.9191 75.6348 43.0021C75.9782 43.0852 76.2369 43.2018 76.411 43.3519C76.5851 43.502 76.6721 43.7233 76.6721 44.0155C76.6721 44.3078 76.562 44.5449 76.3416 44.7269C76.1212 44.9091 75.832 45 75.4744 45C74.9504 45 74.4856 44.8197 74.0801 44.4586L74.4347 44.0322C74.7731 44.3262 75.1246 44.4731 75.4887 44.4731C75.6707 44.4731 75.8153 44.434 75.9223 44.3557C76.0293 44.2773 76.0828 44.1736 76.0828 44.0441C76.0828 43.9149 76.0325 43.8143 75.9319 43.7424C75.8312 43.6706 75.658 43.605 75.4121 43.5459C75.1661 43.4869 74.9792 43.4326 74.8514 43.3831C74.7236 43.3335 74.6103 43.2688 74.5113 43.189C74.3132 43.0388 74.2142 42.8089 74.2142 42.4991C74.2142 42.1893 74.3269 41.9504 74.552 41.7827C74.7771 41.6151 75.0558 41.5312 75.3881 41.5312C75.6021 41.5312 75.8145 41.5664 76.0253 41.6366C76.2361 41.7068 76.4183 41.8059 76.5717 41.9337L76.2697 42.3601C76.1706 42.2707 76.0365 42.1972 75.8672 42.1397C75.6979 42.0822 75.531 42.0535 75.3665 42.0535Z" fill="#1D2327"/>
</svg>
